<svg width="29" height="29" viewBox="0 0 29 29" fill="none" xmlns="http://www.w3.org/2000/svg">
<path d="M12.484 19.9557C12.3322 19.956 12.1819 19.9263 12.0416 19.8684C11.9013 19.8105 11.7739 19.7254 11.6666 19.6181L6.76234 14.7128C6.65184 14.6062 6.56368 14.4787 6.50299 14.3377C6.4423 14.1967 6.41031 14.045 6.40886 13.8915C6.40742 13.738 6.43657 13.5858 6.4946 13.4437C6.55263 13.3015 6.63838 13.1724 6.74685 13.0638C6.85533 12.9551 6.98435 12.8692 7.12639 12.811C7.26843 12.7527 7.42064 12.7234 7.57415 12.7246C7.72766 12.7258 7.87939 12.7576 8.02048 12.8181C8.16157 12.8786 8.2892 12.9666 8.39593 13.0769L12.4828 17.1637L19.8415 9.80748C20.0583 9.59055 20.3523 9.46861 20.659 9.46851C20.9657 9.4684 21.2599 9.59012 21.4768 9.8069C21.6938 10.0237 21.8157 10.3178 21.8158 10.6244C21.8159 10.9311 21.6942 11.2253 21.4774 11.4422L13.3013 19.6181C13.194 19.7254 13.0666 19.8105 12.9263 19.8684C12.786 19.9263 12.6357 19.956 12.484 19.9557Z" fill="#2FAB73"/>
</svg>
