<svg width="22" height="22" viewBox="0 0 22 22" fill="none" xmlns="http://www.w3.org/2000/svg">
<g clip-path="url(#clip0_2_18)">
<path d="M10.7972 1.8125L2.92224 6.1875V15.8125L10.7972 20.1875L18.6722 15.8125V6.1875L10.7972 1.8125ZM10.7972 20.1875V10.5625V20.1875ZM18.6722 6.1875L10.7972 10.5625L18.6722 6.1875ZM10.7972 10.5625L2.92224 6.1875L10.7972 10.5625ZM18.6722 15.8125V11L14.7347 13.1875V18L18.6722 15.8125ZM2.92224 15.8125V11L6.85974 13.1875V18L2.92224 15.8125ZM10.7972 1.8125L6.85974 4L10.7972 6.1875L14.7347 4L10.7972 1.8125Z" stroke="#D33341" stroke-width="1.5"/>
</g>
<defs>
<clipPath id="clip0_2_18">
<rect width="21" height="21" fill="white" transform="translate(0.297241 0.5)"/>
</clipPath>
</defs>
</svg>
