<svg width="96" height="96" viewBox="0 0 96 96" fill="none" xmlns="http://www.w3.org/2000/svg">
<path fill-rule="evenodd" clip-rule="evenodd" d="M48 0.5C74.22 0.5 95.5 21.8275 95.5 48L95.4817 49.3289C94.7772 74.9352 73.7756 95.5 48 95.5C21.8275 95.5 0.5 74.22 0.5 48C0.5 21.8275 21.8275 0.5 48 0.5ZM29 57.405C30.425 58.7825 32.6575 58.7825 34.035 57.3575L48 43.345L61.965 57.3575C63.3425 58.7825 65.6225 58.7825 67 57.405C68.425 55.98 68.425 53.7475 67 52.37L50.5175 35.7925C49.8525 35.1275 48.95 34.7475 48 34.7475C47.05 34.7475 46.1475 35.1275 45.4825 35.7925L29 52.37C28.2875 53.035 27.955 53.9375 27.955 54.84C27.955 55.79 28.2875 56.6925 29 57.405Z" fill="#D33341"/>
</svg>
