<svg width="18" height="19" viewBox="0 0 18 19" fill="none" xmlns="http://www.w3.org/2000/svg">
<path fill-rule="evenodd" clip-rule="evenodd" d="M9 17.0001C4.86 17.0001 1.5 13.6476 1.5 9.50006C1.5 5.36006 4.86 2.00006 9 2.00006C13.1475 2.00006 16.5 5.36006 16.5 9.50006C16.5 13.6476 13.1475 17.0001 9 17.0001ZM11.3925 12.2826C11.4825 12.3351 11.58 12.3651 11.685 12.3651C11.8725 12.3651 12.06 12.2676 12.165 12.0876C12.3225 11.8251 12.24 11.4801 11.97 11.3151L9.3 9.72506V6.26006C9.3 5.94506 9.045 5.69756 8.7375 5.69756C8.43 5.69756 8.175 5.94506 8.175 6.26006V10.0476C8.175 10.2426 8.28 10.4226 8.4525 10.5276L11.3925 12.2826Z" fill="white"/>
</svg>
