<svg width="29" height="28" viewBox="0 0 29 28" fill="none" xmlns="http://www.w3.org/2000/svg">
<path d="M10.3613 16.6564C9.80058 16.8704 9.33605 18.7182 9.80059 19.1826C10.3788 19.7606 11.0727 19.2181 11.18 19.1108L19.356 10.9349C19.5728 10.7179 19.6945 10.4238 19.6944 10.1171C19.6943 9.81043 19.5724 9.51635 19.3555 9.29957C19.1385 9.0828 18.8444 8.96107 18.5377 8.96118C18.231 8.96129 17.9369 9.08322 17.7201 9.30015L10.3613 16.6564Z" fill="#D33341"/>
<path d="M18.9428 16.6564C19.5036 16.8704 19.9681 18.7182 19.5035 19.1826C18.9254 19.7606 18.2315 19.2181 18.1242 19.1108L9.94811 10.9349C9.73133 10.7179 9.6096 10.4238 9.60971 10.1171C9.60982 9.81043 9.73175 9.51635 9.94868 9.29957C10.1656 9.0828 10.4598 8.96107 10.7665 8.96118C11.0732 8.96129 11.3672 9.08322 11.584 9.30015L18.9428 16.6564Z" fill="#D33341"/>
</svg>
