<svg width="14" height="14" viewBox="0 0 14 14" fill="none" xmlns="http://www.w3.org/2000/svg">
<g clip-path="url(#clip0_73_1448)">
<path d="M11.5546 8.48762L11.5546 8.48762L9.48883 7.60228L8.14252 9.40187C8.02959 9.55281 7.8363 9.61928 7.65497 9.57068L7.66791 9.52239L7.65496 9.57068C7.47321 9.52197 7.33943 9.36751 7.31713 9.1807L7.36677 9.17477L7.31713 9.18069L7.24393 8.56692L1.8956 13.9152C1.71589 14.095 1.42452 14.0949 1.24484 13.9152L0.0847407 12.7552L0.0847381 12.7552L0.120093 12.7198C-0.0400857 12.5597 -0.0399763 12.2998 0.120093 12.1398L11.5546 8.48762ZM11.5546 8.48762C11.7276 8.56176 11.9282 8.52308 12.0612 8.39007L12.0259 8.35471L12.0612 8.39006C12.1943 8.25702 12.2329 8.05636 12.1588 7.88341L11.2735 5.81767L13.0731 4.47135C13.2237 4.35864 13.2906 4.16553 13.2419 3.9838L13.1936 3.99674L13.2419 3.9838C13.1932 3.80204 13.0388 3.66826 12.8519 3.64599L10.6203 3.37983L10.3541 1.14818L10.3045 1.1541L10.3541 1.14818C10.3318 0.961327 10.1981 0.806901 10.0163 0.758187L10.0034 0.806483L10.0163 0.758187C9.8345 0.709472 9.64145 0.776349 9.52874 0.927003L8.18243 2.72659L6.11669 1.84125L6.11668 1.84125C5.94365 1.76711 5.74304 1.80579 5.61003 1.93884L11.5546 8.48762ZM7.34033 4.50118L7.38629 4.48148C7.46997 4.67676 7.40912 4.90396 7.23898 5.03121M7.34033 4.50118L7.20903 4.99117M7.34033 4.50118L7.38629 4.48148L6.81149 3.1403L8.15267 3.71509C8.34791 3.79878 8.57513 3.73792 8.7024 3.56779L9.57648 2.39941L9.74928 3.84831C9.77444 4.05924 9.94074 4.22557 10.1517 4.25073L11.6006 4.42353L10.4322 5.29763C10.4322 5.29763 10.4322 5.29763 10.4322 5.29763L7.34033 4.50118ZM7.23898 5.03121L7.20903 4.99117M7.23898 5.03121L7.23898 5.03121L7.20903 4.99117M7.23898 5.03121L6.0706 5.90531M7.20903 4.99117L5.99861 5.89673L6.0706 5.90531M6.0706 5.90531L7.51947 6.07811C7.73044 6.10327 7.89674 6.26957 7.9219 6.48054L8.09467 7.92941M6.0706 5.90531L6.01255 5.94875L7.51355 6.12776C7.7016 6.15019 7.84983 6.29841 7.87225 6.48646L8.05124 7.98746M8.09467 7.92941L8.10326 8.0014L8.05982 8.05945L8.05124 7.98746M8.09467 7.92941L8.05124 7.98746M8.09467 7.92941L8.05124 7.98746M5.4331 6.75609L0.0847407 12.1044L4.47762 6.33213C4.52104 6.49414 4.65869 6.61339 4.82524 6.63324L4.81932 6.68289L4.81932 6.68289L5.4331 6.75609ZM10.8597 7.18854L10.8882 7.25518L10.9549 7.28374L10.9263 7.2171L10.8597 7.18854ZM6.74486 3.11174L6.7163 3.0451L6.78294 3.07366L6.74486 3.11174ZM1.06085 12.4298L6.59588 6.89477L7.05095 6.94904L7.10521 7.4041L1.5702 12.9391L1.06085 12.4298Z" fill="#949494" stroke="#949494" stroke-width="0.1"/>
<path d="M12.3062 2.27385L12.3256 2.25441C12.3232 2.10673 12.2656 1.95979 12.153 1.8471C12.153 1.84708 12.1529 1.84706 12.1529 1.84704C12.1529 1.84703 12.1529 1.84702 12.1529 1.847C12.0402 1.73431 11.8932 1.67678 11.7456 1.67436L11.7261 1.6938C11.7285 1.84148 11.7861 1.98841 11.8987 2.10111C11.8988 2.10113 11.8988 2.10115 11.8988 2.10117C11.8988 2.10118 11.8988 2.10119 11.8988 2.1012C12.0116 2.21389 12.1585 2.27143 12.3062 2.27385ZM12.3159 1.68406L12.0259 1.39406L12.3159 1.68406Z" fill="#949494" stroke="#949494" stroke-width="2"/>
<path d="M8.06753 0.713505L8.06042 0.686983C7.93156 0.615306 7.77569 0.591497 7.62133 0.632828C7.6213 0.632835 7.62127 0.632842 7.62125 0.63285L7.71426 0.979989C7.71428 0.979982 7.7143 0.979976 7.71433 0.97997C7.86829 0.938697 7.9916 0.840194 8.06753 0.713505ZM7.26805 0.899315L7.27517 0.92587C7.40427 0.997603 7.56025 1.02121 7.714 0.980057L7.62108 0.632894C7.46721 0.674186 7.34396 0.772664 7.26805 0.899315ZM8.13577 1.10564L8.13572 1.10566L8.13577 1.10564Z" fill="#949494" stroke="#949494" stroke-width="2"/>
<path d="M9.95678 9.34878C10.111 9.3075 10.2669 9.33125 10.3959 9.40294L10.403 9.42946C10.327 9.55615 10.2037 9.65465 10.0498 9.69592C10.0498 9.69593 10.0497 9.69593 10.0497 9.69594L9.9567 9.3488C9.95672 9.3488 9.95675 9.34879 9.95678 9.34878ZM9.6035 9.61527C9.67938 9.48865 9.80258 9.3902 9.95639 9.34888C9.95646 9.34886 9.95653 9.34885 9.9566 9.34883L10.0496 9.69598C10.0496 9.69598 10.0495 9.69598 10.0495 9.69599C9.8957 9.73717 9.73971 9.71355 9.61062 9.64181L9.6035 9.61527Z" fill="#949494" stroke="#949494" stroke-width="2"/>
<path d="M4.30428 3.95018C4.34542 3.79665 4.44383 3.67311 4.5707 3.597L4.59726 3.60412C4.669 3.73322 4.69264 3.88926 4.6514 4.0432L4.30428 3.95018ZM4.30427 3.95022L4.65139 4.04323C4.65139 4.04323 4.65139 4.04323 4.65139 4.04324C4.61013 4.19723 4.5117 4.32056 4.38504 4.39649L4.35841 4.38936C4.28666 4.26024 4.26302 4.10419 4.30427 3.95023C4.30427 3.95023 4.30427 3.95022 4.30427 3.95022Z" fill="#949494" stroke="#949494" stroke-width="2"/>
<path d="M13.3131 5.93945L13.2865 5.93234C13.1596 6.00854 13.0612 6.13221 13.0201 6.28555L13.3672 6.37855C13.4085 6.22464 13.3848 6.06858 13.3131 5.93945ZM13.0742 6.72469L13.1008 6.73182C13.2275 6.65591 13.3259 6.53263 13.3672 6.37867L13.0201 6.28562C12.9788 6.43955 13.0025 6.59559 13.0742 6.72469Z" fill="#949494" stroke="#949494" stroke-width="2"/>
</g>
<defs>
<clipPath id="clip0_73_1448">
<rect width="14" height="14" fill="white"/>
</clipPath>
</defs>
</svg>
