<svg width="6" height="8" viewBox="0 0 6 8" fill="none" xmlns="http://www.w3.org/2000/svg">
<path d="M5.61826 4.57625C5.5853 4.61009 5.46085 4.75475 5.34492 4.87375C4.66527 5.62217 2.89225 6.84717 1.96426 7.22109C1.82333 7.28117 1.46702 7.40834 1.27665 7.4165C1.09423 7.4165 0.920341 7.3745 0.754405 7.28934C0.547553 7.17034 0.381617 6.98309 0.290693 6.762C0.232161 6.60859 0.141237 6.1495 0.141237 6.14134C0.0503133 5.63909 0.000305176 4.823 0.000305176 3.92117C0.000305176 3.06192 0.0503133 2.27909 0.124757 1.76925C0.133281 1.76109 0.224205 1.19059 0.323653 0.995171C0.506069 0.638171 0.862377 0.416504 1.24369 0.416504H1.27665C1.52498 0.425254 2.04723 0.646921 2.04723 0.655087C2.92521 1.02959 4.65731 2.1945 5.35345 2.96859C5.35345 2.96859 5.5495 3.1675 5.63474 3.29175C5.76772 3.47025 5.83364 3.69134 5.83364 3.91242C5.83364 4.15917 5.75919 4.389 5.61826 4.57625Z" fill="#272D4E"/>
</svg>
