<svg width="148" height="148" viewBox="0 0 148 148" fill="none" xmlns="http://www.w3.org/2000/svg">
<path d="M128.965 121.438V51.6918L73.9967 32.6394L19.0286 51.6918V121.438L73.9967 138.872L128.965 121.438Z" fill="#FD982C"/>
<path d="M128.965 121.438V51.6918L73.9968 32.6394V138.872L128.965 121.438Z" fill="#FA502E"/>
<path d="M128.965 51.6918L73.9967 32.6394L19.0286 51.6918L73.9967 71.033L128.965 51.6918Z" fill="#FFF2B4"/>
<path d="M128.965 51.6918L73.9968 32.6394V71.033L128.965 51.6918Z" fill="#FFDF8E"/>
<path d="M19.0287 51.6919L0 74.2087L56.0027 94.5601L73.9968 71.0331L19.0287 51.6919Z" fill="#FABE3D"/>
<path d="M128.965 51.6919L148 74.2087L91.9973 94.5601L73.9968 71.0331L128.965 51.6919Z" fill="#FABE3D"/>
<path d="M128.965 51.6919L148 74.2087L91.9973 94.5601L73.9968 71.0331L128.965 51.6919Z" fill="#FD982C"/>
<path d="M19.0287 51.6918L0 29.4799L56.0027 9.12817L73.9968 32.6394L19.0287 51.6918Z" fill="#FDDA50"/>
<path d="M128.965 51.6918L148 29.4799L91.9973 9.12817L73.9968 32.6394L128.965 51.6918Z" fill="#FABE3D"/>
</svg>
