<svg width="27" height="27" viewBox="0 0 27 27" fill="none" xmlns="http://www.w3.org/2000/svg">
<path d="M18 7.725V8.625H9V7.5H17.85C17.475 6.975 17.25 6.375 17.1 5.7H9V4.5H16.875V4.425C16.875 3.375 17.175 2.4 17.7 1.5H7.125C6.525 1.5 6 2.025 6 2.625V25.5H21V9.825C19.8 9.45 18.75 8.775 18 7.725ZM13.5 22.875C12.375 22.875 11.4 21.975 11.4 20.775C11.4 19.575 12.375 18.75 13.5 18.75C14.625 18.75 15.6 19.65 15.6 20.85C15.6 22.05 14.625 22.875 13.5 22.875ZM17.25 16.95H9.75V15.75H17.25V16.95Z" fill="#A1A1A1"/>
<path d="M13.5 21.7502C13.997 21.7502 14.4 21.3473 14.4 20.8502C14.4 20.3531 13.997 19.9502 13.5 19.9502C13.0029 19.9502 12.6 20.3531 12.6 20.8502C12.6 21.3473 13.0029 21.7502 13.5 21.7502Z" fill="#A1A1A1"/>
<path d="M22.5 8.1748C24.5711 8.1748 26.25 6.49587 26.25 4.4248C26.25 2.35374 24.5711 0.674805 22.5 0.674805C20.4289 0.674805 18.75 2.35374 18.75 4.4248C18.75 6.49587 20.4289 8.1748 22.5 8.1748Z" fill="#A1A1A1"/>
</svg>
