<svg width="20" height="20" viewBox="0 0 20 20" fill="none" xmlns="http://www.w3.org/2000/svg">
<path d="M17.6087 4.78264H15.5217L14.3696 3.04351C13.9348 2.39133 13.1739 2.00003 12.3913 2.00003H7.6087C6.82609 2.00003 6.06522 2.39133 5.63043 3.04351L4.47826 4.78264H2.3913C1.06522 4.78264 0 5.84786 0 7.17394V15.6087C0 16.9348 1.06522 18 2.3913 18H17.6087C18.9348 18 20 16.9348 20 15.6087V7.17394C20 5.84786 18.9348 4.78264 17.6087 4.78264ZM10 16.0435C7.02174 16.0435 4.6087 13.6305 4.6087 10.6522C4.6087 7.67394 7.02174 5.28264 10 5.28264C12.9783 5.28264 15.3913 7.69568 15.3913 10.6739C15.3913 13.6305 12.9783 16.0435 10 16.0435ZM17.3043 8.1522C17.2826 8.1522 17.2609 8.1522 17.2174 8.1522H16.3478C15.9565 8.13046 15.6522 7.80438 15.6739 7.41307C15.6957 7.04351 15.9783 6.7609 16.3478 6.73916H17.2174C17.6087 6.71742 17.9348 7.02177 17.9565 7.41307C17.9783 7.80438 17.6957 8.13046 17.3043 8.1522Z" fill="white"/>
<path d="M10 7.67398C8.34783 7.67398 7 9.02181 7 10.674C7 12.3262 8.34783 13.6522 10 13.6522C11.6522 13.6522 13 12.3044 13 10.6522C13 9.00007 11.6522 7.67398 10 7.67398Z" fill="white"/>
</svg>
