<svg width="25" height="19" viewBox="0 0 25 19" fill="none" xmlns="http://www.w3.org/2000/svg">
<path d="M22.2778 0H2.72222C1.22222 0 0 1.1765 0 2.6204V16.2572C0 17.701 1.22222 18.8776 2.72222 18.8776H22.2778C23.7778 18.8776 25 17.701 25 16.2572V2.6204C25 1.1765 23.7778 0 22.2778 0ZM5.41667 6.17665C5.66667 5.00014 6.86111 4.22472 8.08333 4.46537C9.30556 4.70602 10.1111 5.85578 9.86111 7.03229C9.69444 7.88793 8.97222 8.58314 8.08333 8.74357C6.86111 8.98422 5.66667 8.20879 5.41667 7.03229C5.36111 6.7649 5.36111 6.47078 5.41667 6.17665ZM11.5 13.8774C11.5 14.1983 11.2222 14.4657 10.8889 14.4657H4.38889C4.05556 14.4657 3.77778 14.1983 3.77778 13.8774V13.1822C3.75 11.257 5.22222 9.65269 7.19444 9.3853C9.30556 9.14465 11.25 10.6153 11.4722 12.6474C11.5 12.7811 11.5 12.9416 11.5 13.0752V13.8774ZM21 12.5672H13.7222V10.8025H21V12.5672ZM21 8.0751H13.7222V6.31034H21V8.0751Z" fill="#D33341"/>
</svg>
