<svg width="65" height="65" viewBox="0 0 65 65" fill="none" xmlns="http://www.w3.org/2000/svg">
<circle cx="32.5" cy="32.5" r="32.5" fill="#F7F7F7"/>
<g clip-path="url(#clip0_73_1041)">
<path opacity="0.35" d="M41.2358 46.1071H22.6643C20.0999 46.1071 18.0215 44.0287 18.0215 41.4643V22.8929C18.0215 20.3285 20.0999 18.25 22.6643 18.25H41.2358C43.8002 18.25 45.8786 20.3285 45.8786 22.8929V41.4643C45.8786 44.0287 43.8002 46.1071 41.2358 46.1071Z" fill="#DD1A37"/>
<path d="M45.8786 36.8223V41.4651C45.8786 44.0295 43.8002 46.108 41.2358 46.108H22.6643C20.0999 46.108 18.0215 44.0295 18.0215 41.4651V36.8223H24.7412C25.9809 36.8223 27.1896 37.4893 27.6709 38.6314C28.3751 40.2982 30.0233 41.4651 31.9501 41.4651C33.8768 41.4651 35.5251 40.2982 36.2292 38.6314C36.7105 37.4893 37.9177 36.8223 39.1589 36.8223H45.8786Z" fill="#DD1A37"/>
</g>
<defs>
<clipPath id="clip0_73_1041">
<rect width="37.1429" height="37.1429" fill="white" transform="translate(13.3784 13.6074)"/>
</clipPath>
</defs>
</svg>
