<svg width="35" height="32" viewBox="0 0 35 32" fill="none" xmlns="http://www.w3.org/2000/svg">
<path fill-rule="evenodd" clip-rule="evenodd" d="M11.9009 21.8531H19.0824C19.6237 21.8531 20.0725 21.3998 20.0725 20.8531C20.0725 20.3065 19.6237 19.8665 19.0824 19.8665H11.9009C11.3597 19.8665 10.9108 20.3065 10.9108 20.8531C10.9108 21.3998 11.3597 21.8531 11.9009 21.8531ZM16.363 13.1998H11.9009C11.3597 13.1998 10.9108 13.6531 10.9108 14.1998C10.9108 14.7465 11.3597 15.1865 11.9009 15.1865H16.363C16.9042 15.1865 17.3531 14.7465 17.3531 14.1998C17.3531 13.6531 16.9042 13.1998 16.363 13.1998ZM25.784 12.034C26.0944 12.0304 26.4322 12.0265 26.7392 12.0265C27.0693 12.0265 27.3333 12.2932 27.3333 12.6265V23.3465C27.3333 26.6532 24.6798 29.3332 21.4059 29.3332H10.8976C7.46531 29.3332 4.66663 26.5198 4.66663 23.0532V8.67984C4.66663 5.37317 7.33329 2.6665 10.6204 2.6665H17.6699C18.0132 2.6665 18.2772 2.9465 18.2772 3.27984V7.57317C18.2772 10.0132 20.2706 12.0132 22.6864 12.0265C23.2507 12.0265 23.7482 12.0307 24.1835 12.0344C24.5222 12.0373 24.8234 12.0398 25.0891 12.0398C25.277 12.0398 25.5206 12.037 25.784 12.034ZM26.1481 10.0878C25.063 10.0918 23.7838 10.0878 22.8637 10.0784C21.4036 10.0784 20.2009 8.86376 20.2009 7.38909V3.87443C20.2009 3.29976 20.8914 3.01443 21.2861 3.42909C22.0005 4.17931 22.9821 5.21052 23.9593 6.23704C24.9343 7.26116 25.9047 8.28062 26.6009 9.01176C26.9864 9.41576 26.7039 10.0864 26.1481 10.0878Z" fill="#A2A2A2"/>
<rect x="21" y="17" width="10" height="13" rx="1" fill="#EEEEEE"/>
<path fill-rule="evenodd" clip-rule="evenodd" d="M27.869 22.5036L27.8698 22.6954C27.8764 23.4561 27.9222 24.1349 28.0013 24.565C28.0013 24.5728 28.0876 24.9994 28.1426 25.1414C28.2288 25.3467 28.3848 25.5209 28.5804 25.6313C28.737 25.71 28.9013 25.75 29.0732 25.75C29.2084 25.7437 29.4313 25.6757 29.5904 25.6187L29.7226 25.568C30.5984 25.2202 32.2724 24.0835 32.9135 23.3884L32.9608 23.3398L33.1717 23.1122C33.3047 22.9379 33.375 22.7249 33.375 22.4958C33.375 22.2906 33.3124 22.0853 33.1871 21.9195C33.1496 21.8657 33.0892 21.7968 33.0354 21.7385L32.8301 21.5236C32.1235 20.8077 30.5936 19.8035 29.8006 19.4708C29.8006 19.4636 29.3078 19.2578 29.0732 19.25H29.0419C28.6821 19.25 28.3458 19.4553 28.1739 19.787C28.1269 19.8777 28.0818 20.0553 28.0476 20.2114L27.986 20.506C27.9157 20.9797 27.869 21.7064 27.869 22.5036ZM24.4393 21.6776C23.9896 21.6776 23.625 22.0457 23.625 22.4998C23.625 22.9538 23.9896 23.322 24.4393 23.322L26.443 23.1447C26.7958 23.1447 27.0818 22.8566 27.0818 22.4998C27.0818 22.1436 26.7958 21.8548 26.443 21.8548L24.4393 21.6776Z" fill="#A2A2A2"/>
</svg>
