<svg width="27" height="27" viewBox="0 0 27 27" fill="none" xmlns="http://www.w3.org/2000/svg">
<path d="M22.7812 6.75C21.1387 6.75 19.8112 8.0325 19.6875 9.6525L14.1188 8.055C13.7138 7.93125 13.2862 7.93125 12.8812 8.055L7.3125 9.6525C7.18875 8.0325 5.86125 6.75 4.21875 6.75C2.50875 6.75 1.125 8.13375 1.125 9.84375V13.7812C1.125 15.4912 2.50875 16.875 4.21875 16.875H6.39C7.66125 19.53 10.3613 21.375 13.5 21.375C16.6387 21.375 19.3387 19.53 20.61 16.875H22.7812C24.4912 16.875 25.875 15.4912 25.875 13.7812V9.84375C25.875 8.13375 24.4912 6.75 22.7812 6.75ZM5.625 15.1875H4.21875C3.4425 15.1875 2.8125 14.5575 2.8125 13.7812V9.84375C2.8125 9.47079 2.96066 9.1131 3.22438 8.84938C3.4881 8.58566 3.84579 8.4375 4.21875 8.4375C4.59171 8.4375 4.9494 8.58566 5.21312 8.84938C5.47684 9.1131 5.625 9.47079 5.625 9.84375V15.1875ZM16.875 13.5L13.95 12.7125C13.6125 12.6 13.275 12.6 13.05 12.7125L10.125 13.5V12.375L12.7125 11.5875C13.1625 11.475 13.725 11.475 14.2875 11.5875L16.875 12.375V13.5ZM24.1875 13.7812C24.1875 14.5575 23.5575 15.1875 22.7812 15.1875H21.375V9.84375C21.375 9.47079 21.5232 9.1131 21.7869 8.84938C22.0506 8.58566 22.4083 8.4375 22.7812 8.4375C23.1542 8.4375 23.5119 8.58566 23.7756 8.84938C24.0393 9.1131 24.1875 9.47079 24.1875 9.84375V13.7812Z" fill="#A1A1A1"/>
</svg>
