<svg width="65" height="65" viewBox="0 0 65 65" fill="none" xmlns="http://www.w3.org/2000/svg">
<circle cx="32.5" cy="32.5" r="32.5" fill="#F7F7F7"/>
<path opacity="0.35" d="M32.1548 19C24.8902 19 19 24.8902 19 32.1548C19 34.2487 19.5014 36.2204 20.3727 37.9785L19.0511 43.2651C18.7493 44.4692 19.8404 45.5602 21.0444 45.2585L26.3311 43.9368C28.0892 44.8081 30.0608 45.3095 32.1548 45.3095C39.4193 45.3095 45.3095 39.4193 45.3095 32.1548C45.3095 24.8902 39.4193 19 32.1548 19Z" fill="#DD1A37"/>
<path d="M35 37C34.6951 37.3042 34.2575 37.5566 33.731 37.7321C33.2045 37.9076 32.6076 38 32 38C31.3924 38 30.7955 37.9076 30.269 37.7321C29.7425 37.5566 29.3049 37.3042 29 37" stroke="#F6F6F6" stroke-width="2" stroke-linecap="round" stroke-linejoin="round"/>
<path opacity="0.35" d="M37.017 22.1814C36.5558 21.7201 35.8078 21.7201 35.3461 22.1814C34.8844 22.6426 34.8849 23.3906 35.3461 23.8523L37.5411 26.0473C38.2258 26.732 39.3353 26.732 40.02 26.0473L40.4515 25.6158L37.017 22.1814Z" fill="#DD1A37"/>
<path d="M45.0503 19.3459C44.5891 18.8847 43.841 18.8847 43.3793 19.3459L38.7805 23.9447L40.4514 25.6157L45.0503 21.0168C45.5115 20.5552 45.5115 19.8071 45.0503 19.3459Z" fill="#DD1A37"/>
<circle cx="27.5" cy="30.5" r="1.5" fill="#F6F6F6"/>
<circle cx="36.5" cy="30.5" r="1.5" fill="#F6F6F6"/>
</svg>
