<svg width="25" height="25" viewBox="0 0 545 545" fill="none" xmlns="http://www.w3.org/2000/svg">
<g clip-path="url(#clip0)">
<path d="M81.4892 95.7862L81.4893 95.7862C83.8015 95.166 86.2187 95.4845 88.2925 96.6817L112.174 110.47C115.248 112.245 119.118 111.811 121.723 109.402C146.129 86.8301 175.492 69.7998 206.637 60.1511C210.028 59.1004 212.34 55.9645 212.34 52.4149V25.0636C212.34 20.12 216.362 16.098 221.305 16.098H323.693C328.637 16.098 332.658 20.12 332.658 25.0636V52.4149C332.658 55.9645 334.97 59.1004 338.36 60.1511C369.697 69.8585 399.096 86.8675 423.383 109.338C425.988 111.748 429.859 112.181 432.933 110.407L456.706 96.6817C458.781 95.4845 461.197 95.166 463.509 95.7862C465.822 96.4065 467.756 97.8893 468.954 99.9631L520.148 188.634C521.345 190.708 521.663 193.124 521.043 195.437C520.423 197.75 518.94 199.684 516.866 200.881L493.112 214.595C490.041 216.369 488.481 219.933 489.261 223.392C492.919 239.603 494.773 256.124 494.773 272.5C494.773 288.597 492.891 305.104 489.179 321.561C488.4 325.02 489.96 328.583 493.03 330.357L516.866 344.118C521.145 346.59 522.618 352.085 520.145 356.366L468.952 445.036C466.48 449.318 460.986 450.79 456.705 448.317L432.823 434.529C429.751 432.755 425.879 433.188 423.275 435.597C398.869 458.169 369.506 475.199 338.36 484.848C334.969 485.899 332.657 489.034 332.657 492.584V519.936C332.657 524.88 328.635 528.902 323.692 528.902H221.304C216.361 528.902 212.339 524.88 212.339 519.936V492.585C212.339 489.036 210.027 485.9 206.637 484.849C175.3 475.14 145.9 458.131 121.614 435.662C120.079 434.242 118.104 433.508 116.112 433.508C114.723 433.508 113.327 433.864 112.065 434.593L88.2915 448.317C84.0091 450.788 78.5158 449.317 76.0445 445.036L24.8508 356.366C22.3795 352.085 23.852 346.59 28.1322 344.118L51.8861 330.404C54.9572 328.63 56.5176 325.067 55.7369 321.607C52.0792 305.395 50.2253 288.872 50.2253 272.5C50.2253 256.403 52.1069 239.896 55.819 223.438C56.5987 219.979 55.0383 216.414 51.9682 214.642L28.1322 200.881C26.0583 199.684 24.5755 197.75 23.9553 195.437C23.3361 193.124 23.6535 190.708 24.8508 188.634L76.0445 99.9631C77.2418 97.8893 79.1749 96.4054 81.4892 95.7862ZM524.963 330.091L506.226 319.272C509.375 303.587 510.969 287.88 510.969 272.5C510.969 256.896 509.401 241.175 506.305 225.681L524.963 214.908C530.784 211.548 534.948 206.121 536.687 199.629C538.426 193.137 537.534 186.355 534.173 180.535L482.979 91.8641C479.618 86.0434 474.192 81.8789 467.7 80.14C461.207 78.4011 454.426 79.2931 448.605 82.6542L429.932 93.4351C406.287 72.6455 378.468 56.5511 348.855 46.5274V25.0636C348.855 11.1882 337.567 -0.1 323.692 -0.1H221.304C207.429 -0.1 196.141 11.1882 196.141 25.0636V46.5285C166.686 56.5119 138.905 72.6276 115.173 93.4991L96.3905 82.6542C90.5687 79.2931 83.7871 78.4 77.295 80.14C70.803 81.88 65.377 86.0434 62.0159 91.8641L10.8222 180.535C7.46107 186.355 6.56906 193.137 8.30797 199.629C10.0469 206.121 14.2114 211.548 20.0321 214.908L38.7687 225.727C35.622 241.412 34.0273 257.119 34.0273 272.5C34.0273 288.101 35.5953 303.823 38.6909 319.318L20.0331 330.091C8.01664 337.028 3.88556 352.448 10.8222 364.465L62.0159 453.136C68.9536 465.151 84.3729 469.283 96.3905 462.346L115.062 451.565C138.709 472.355 166.526 488.449 196.141 498.474V519.936C196.141 533.812 207.429 545.1 221.304 545.1H323.692C337.567 545.1 348.855 533.812 348.855 519.936V498.472C378.311 488.488 406.092 472.372 429.824 451.502L448.606 462.346C460.621 469.283 476.043 465.151 482.98 453.136L534.174 364.465C541.111 352.448 536.98 337.028 524.963 330.091Z" fill="black" stroke="black" stroke-width="0.2"/>
<path d="M272.505 110.814C183.354 110.814 110.825 183.344 110.825 272.494C110.825 361.645 183.354 434.174 272.505 434.174C361.657 434.174 434.185 361.645 434.185 272.494C434.185 183.344 361.657 110.814 272.505 110.814ZM272.505 417.976C192.286 417.976 127.023 352.713 127.023 272.494C127.023 192.276 192.286 127.012 272.505 127.012C352.724 127.012 417.987 192.276 417.987 272.494C417.987 352.713 352.724 417.976 272.505 417.976Z" fill="black" stroke="black" stroke-width="0.2"/>
<path d="M302.357 230.276H272.494C268.021 230.276 264.395 233.903 264.395 238.375V306.634C264.395 311.107 268.021 314.733 272.494 314.733C276.967 314.733 280.593 311.107 280.593 306.634V289.136H302.357C318.585 289.136 331.787 275.934 331.787 259.706C331.787 243.478 318.585 230.276 302.357 230.276ZM302.357 272.938H280.593V246.475H302.357C309.653 246.475 315.589 252.41 315.589 259.706C315.589 267.003 309.653 272.938 302.357 272.938Z" fill="black" stroke="black" stroke-width="0.2"/>
<path d="M194.767 309.478L194.686 309.447L194.767 309.478L199.195 297.668H234.897L239.326 309.477C240.545 312.729 243.631 314.735 246.91 314.735C247.855 314.735 248.816 314.569 249.752 314.218C253.94 312.648 256.063 307.978 254.491 303.79L228.896 235.532C227.71 232.371 224.688 230.276 221.313 230.276H212.78C209.405 230.276 206.382 232.37 205.198 235.532L179.601 303.79C178.029 307.978 180.153 312.647 184.34 314.218C188.528 315.789 193.196 313.666 194.767 309.478ZM228.824 281.47H205.269L217.047 250.065L228.824 281.47Z" fill="black" stroke="black" stroke-width="0.2"/>
<path d="M349.29 230.276C344.817 230.276 341.191 233.903 341.191 238.375V306.634C341.191 311.107 344.817 314.733 349.29 314.733C353.763 314.733 357.389 311.107 357.389 306.634V238.375C357.389 233.903 353.763 230.276 349.29 230.276Z" fill="black" stroke="black" stroke-width="0.2"/>
<path d="M329.69 93.2004L329.72 93.1072L346.168 99.2121L346.129 99.3041C346.129 99.3041 346.129 99.3041 346.129 99.3041C347.163 99.7446 348.239 99.9531 349.297 99.9531C352.446 99.9531 355.441 98.1045 356.753 95.0246L356.663 94.9864L356.753 95.0246C358.504 90.9092 356.588 86.1524 352.473 84.4009C346.649 81.9221 340.639 79.6898 334.608 77.768C330.348 76.4096 325.791 78.7637 324.433 83.0248L324.433 83.0248C323.075 87.286 325.429 91.8419 329.69 93.2004Z" fill="black" stroke="black" stroke-width="0.2"/>
<path d="M107.208 362.466L107.208 362.466C105.066 358.539 100.145 357.092 96.2195 359.235C92.2931 361.377 90.846 366.297 92.9885 370.223C96.3092 376.31 99.9852 382.297 103.914 388.019L103.997 387.962L103.914 388.019C105.484 390.305 108.019 391.534 110.597 391.534C112.177 391.534 113.773 391.072 115.175 390.11L115.175 390.11C118.863 387.578 119.799 382.536 117.267 378.849C113.65 373.581 110.265 368.069 107.208 362.466Z" fill="black" stroke="black" stroke-width="0.2"/>
<path d="M254.723 476.074C254.959 476.094 255.194 476.104 255.427 476.104C259.586 476.104 263.123 472.92 263.487 468.7C263.871 464.245 260.569 460.321 256.114 459.936C213.274 456.245 172.609 437.68 141.612 407.66L141.542 407.732L141.612 407.66C138.398 404.548 133.271 404.631 130.16 407.844L130.16 407.844C127.048 411.057 127.129 416.185 130.343 419.296C164.009 451.9 208.182 472.064 254.723 476.074ZM254.723 476.074L254.732 475.974M254.723 476.074C254.723 476.074 254.723 476.074 254.723 476.074L254.732 475.974M254.732 475.974C208.213 471.966 164.062 451.812 130.413 419.224L254.732 475.974Z" fill="black" stroke="black" stroke-width="0.2"/>
<path d="M376.4 105.794L376.4 105.794C373.876 109.487 374.824 114.527 378.516 117.051L378.516 117.051C415.659 142.435 442.527 180.208 454.17 223.409C455.145 227.022 458.414 229.402 461.986 229.402C462.683 229.402 463.393 229.312 464.098 229.121C468.417 227.957 470.974 223.513 469.81 219.194C457.163 172.265 427.987 131.241 387.656 103.678L387.603 103.756L387.656 103.678C383.963 101.154 378.924 102.102 376.4 105.794Z" fill="black" stroke="black" stroke-width="0.2"/>
</g>
<defs>
<clipPath id="clip0">
<rect width="545" height="545" fill="white"/>
</clipPath>
</defs>
</svg>
