<svg width="27" height="27" viewBox="0 0 27 27" fill="none" xmlns="http://www.w3.org/2000/svg">
<g clip-path="url(#clip0)">
<g clip-path="url(#clip1)">
<path d="M27.8909 2.96304C26.5231 -1.78842 22.1963 -5.07666 17.2192 -5.07666H15.7037C10.7266 -5.07666 6.39976 -1.78842 5.032 2.96304H0.884521V18.0375H10.6779C11.2824 18.8987 12.0582 19.5987 12.9441 20.1072V21.6513L8.272 22.6528C6.90324 22.9457 5.90934 24.1743 5.90934 25.5747V26.0772H27.0136V25.5747C27.0136 24.1743 26.0196 22.9457 24.6509 22.6528L19.9788 21.6508V20.1067C20.8647 19.5982 21.6405 18.8987 22.245 18.037H32.0384V2.96304H27.8909ZM15.7037 -4.0717H17.2192C21.6491 -4.0717 25.5142 -1.20856 26.8442 2.96304H20.5446L20.5426 2.96254C19.619 2.7319 18.9739 1.90582 18.9739 0.953117H17.9689C17.9689 2.25354 18.7834 3.38663 19.9788 3.82882V5.385L19.4904 5.3036C16.8619 4.86544 14.954 2.61332 14.954 -0.051846H13.949C13.949 0.992813 14.2008 1.98119 14.6445 2.85853C14.0053 3.10072 13.426 3.46653 12.9441 3.94037V2.96304H6.07867C7.40874 -1.20856 11.2738 -4.0717 15.7037 -4.0717ZM23.1816 9.66665C23.0595 9.35159 22.9937 9.01493 22.9937 8.67626C22.9937 7.17032 24.2188 5.94477 25.7252 5.94477H26.2925C27.7984 5.94477 29.024 7.16982 29.024 8.67626C29.024 9.00588 28.9627 9.33501 28.8461 9.64253C28.6325 9.23803 28.2436 8.93905 27.7643 8.85966L26.7824 8.69585C26.2302 8.6039 25.7775 8.21699 25.6001 7.68536L25.4805 7.32609L24.5273 7.64416L24.6469 8.00343C24.6956 8.14965 24.7569 8.28884 24.8293 8.42099L24.2574 8.64962C23.769 8.84459 23.3927 9.2124 23.1816 9.66665ZM23.9987 10.5158C23.9987 10.1028 24.2464 9.73599 24.6303 9.58323L25.5277 9.22396C25.8423 9.45862 26.2141 9.61991 26.6171 9.68725L27.5989 9.85106C27.8421 9.89126 28.0185 10.0998 28.0185 10.3465V11.0017C28.0185 12.1102 27.1171 13.0122 26.0086 13.0127C24.9001 13.0122 23.9987 12.1102 23.9987 11.0017V10.5158ZM26.0076 14.0176H26.0096C26.2814 14.0176 26.5432 13.9779 26.794 13.9101L26.9759 14.4563C26.7754 14.804 26.4141 15.0226 26.0086 15.0226C25.6031 15.0226 25.2418 14.804 25.0413 14.4563L25.2232 13.9101C25.474 13.9779 25.7357 14.0176 26.0076 14.0176ZM24.2117 15.0326C24.5996 15.6497 25.2684 16.0276 26.0086 16.0276C26.7487 16.0276 27.4176 15.6497 27.8055 15.0326L28.9798 15.1889C29.9797 15.3221 30.7646 16.0788 30.9741 17.0325H21.0436C21.2531 16.0788 22.038 15.3221 23.0379 15.1889L24.2117 15.0326ZM1.88948 3.96801H11.9391V15.1412C11.4321 14.6392 10.7668 14.293 10.0176 14.193L8.79911 14.0307L8.61821 13.4875C9.22772 13.0679 9.67393 12.4303 9.84728 11.6881L10.5171 10.3912C10.7899 9.86362 10.9342 9.27069 10.9342 8.67626C10.9342 6.61608 9.25837 4.9398 7.1977 4.9398H6.6304C4.57022 4.94031 2.89445 6.61658 2.89445 8.67626C2.89445 9.27069 3.03866 9.86362 3.31151 10.3912L3.98131 11.6881C4.15517 12.4303 4.60087 13.0679 5.21038 13.4875L5.02949 14.0307L3.81097 14.193C3.06177 14.2925 2.39649 14.6387 1.88948 15.1412V3.96801ZM4.08734 9.66665C3.96524 9.35159 3.89941 9.01493 3.89941 8.67626C3.89941 7.17032 5.12446 5.94477 6.6309 5.94477H7.1982C8.30919 5.94477 9.26591 6.61307 9.69202 7.56778L8.5755 8.84408L7.68812 8.69585C7.13589 8.6039 6.68316 8.21699 6.50578 7.68536L6.38619 7.32609L5.43298 7.64416L5.55257 8.00343C5.60132 8.14965 5.66262 8.28884 5.73497 8.42099L5.16315 8.64962C4.67474 8.84459 4.29838 9.2124 4.08734 9.66665ZM9.75131 9.64303C9.68599 9.51892 9.60308 9.40636 9.5066 9.30536L9.91964 8.83353C9.90356 9.1099 9.84929 9.38375 9.75131 9.64303ZM4.90437 10.5158C4.90437 10.1028 5.1521 9.73599 5.53599 9.58323L6.43342 9.22396C6.74798 9.45862 7.11981 9.61991 7.5228 9.68725L7.79716 9.73297L6.88968 10.7701L6.26459 10.145L5.55408 10.8555L6.93892 12.2404L8.83579 10.0727C8.88805 10.1525 8.92422 10.2445 8.92422 10.3465V11.0017C8.92422 12.1102 8.02277 13.0122 6.9143 13.0127C5.80582 13.0122 4.90437 12.1102 4.90437 11.0017V10.5158ZM6.91329 14.0176H6.9153C7.18715 14.0176 7.44894 13.9779 7.69968 13.9101L7.88158 14.4563C7.68109 14.804 7.3198 15.0226 6.9143 15.0226C6.5088 15.0226 6.14751 14.804 5.94702 14.4563L6.12892 13.9101C6.37966 13.9779 6.64145 14.0176 6.91329 14.0176ZM5.11742 15.0326C5.50534 15.6497 6.17414 16.0276 6.9143 16.0276C7.65445 16.0276 8.32326 15.6497 8.71117 15.0326L9.88547 15.1889C10.8854 15.3221 11.6703 16.0788 11.8798 17.0325H1.94928C2.15881 16.0788 2.94369 15.3221 3.94363 15.1889L5.11742 15.0326ZM19.2658 22.7246L18.6985 24.7109L17.389 23.6633L19.2658 22.7246ZM17.5413 25.0722H15.3816L16.4614 24.2085L17.5413 25.0722ZM14.2244 24.7104L13.6571 22.7241L15.5344 23.6628L14.2244 24.7104ZM8.48254 23.6351L12.619 22.7488L13.2827 25.0722H6.97962C7.16755 24.3642 7.74239 23.7934 8.48254 23.6351ZM25.9433 25.0722H19.6401L20.3039 22.7488L24.4403 23.6351C25.1805 23.7934 25.7553 24.3642 25.9433 25.0722ZM18.9739 21.7468L16.4614 23.003L13.949 21.7468V20.5901C14.7399 20.8901 15.5886 21.0524 16.4614 21.0524C17.3343 21.0524 18.1829 20.8901 18.9739 20.5901V21.7468ZM16.4614 20.0474C14.7249 20.0474 13.0993 19.3062 11.9572 18.0375H12.9441V5.6076C13.4224 4.71268 14.2194 4.04689 15.1771 3.73485C16.1394 5.05889 17.6001 6.00707 19.3251 6.29449L19.9788 6.40353V18.0375H20.9657C19.8235 19.3062 18.198 20.0474 16.4614 20.0474ZM29.1119 14.193L27.8934 14.0307L27.7125 13.4875C28.322 13.0679 28.7682 12.4303 28.9416 11.6881L29.6114 10.3912C29.8842 9.86362 30.0284 9.27069 30.0284 8.67626C30.0284 6.61608 28.3527 4.9398 26.292 4.9398H25.7247C23.6645 4.9398 21.9882 6.61608 21.9882 8.67626C21.9882 9.27069 22.1325 9.86362 22.4053 10.3912L23.0751 11.6881C23.249 12.4303 23.6947 13.0679 24.3042 13.4875L24.1233 14.0307L22.9048 14.193C22.1556 14.293 21.4903 14.6392 20.9833 15.1412V3.96801H31.0329V15.1412C30.5264 14.6387 29.8611 14.2925 29.1119 14.193Z" fill="#A1A1A1"/>
</g>
<path d="M7.35355 18.6464C7.15829 18.4512 6.84171 18.4512 6.64645 18.6464L3.46447 21.8284C3.2692 22.0237 3.2692 22.3403 3.46447 22.5355C3.65973 22.7308 3.97631 22.7308 4.17157 22.5355L7 19.7071L9.82843 22.5355C10.0237 22.7308 10.3403 22.7308 10.5355 22.5355C10.7308 22.3403 10.7308 22.0237 10.5355 21.8284L7.35355 18.6464ZM7.5 25L7.5 19L6.5 19L6.5 25L7.5 25Z" fill="#A1A1A1"/>
<path d="M20.3536 18.6464C20.1583 18.4512 19.8417 18.4512 19.6464 18.6464L16.4645 21.8284C16.2692 22.0237 16.2692 22.3403 16.4645 22.5355C16.6597 22.7308 16.9763 22.7308 17.1716 22.5355L20 19.7071L22.8284 22.5355C23.0237 22.7308 23.3403 22.7308 23.5355 22.5355C23.7308 22.3403 23.7308 22.0237 23.5355 21.8284L20.3536 18.6464ZM20.5 25L20.5 19L19.5 19L19.5 25L20.5 25Z" fill="#A1A1A1"/>
<g clip-path="url(#clip2)">
<path d="M21.9678 2.96255C20.6 -1.78891 16.2732 -5.07715 11.2961 -5.07715H9.78061C4.80353 -5.07715 0.476661 -1.78891 -0.891093 2.96255H-5.03857V18.037H4.75479C5.35927 18.8982 6.13511 19.5982 7.02098 20.1067V21.6508L2.34891 22.6523C0.980148 22.9452 -0.0137601 24.1738 -0.0137601 25.5742V26.0767H21.0905V25.5742C21.0905 24.1738 20.0965 22.9452 18.7278 22.6523L14.0557 21.6503V20.1062C14.9416 19.5977 15.7174 18.8982 16.3219 18.0365H26.1153V2.96255H21.9678ZM9.78061 -4.07219H11.2961C15.726 -4.07219 19.5911 -1.20905 20.9211 2.96255H14.6215L14.6195 2.96205C13.6959 2.73141 13.0508 1.90533 13.0508 0.952629H12.0458C12.0458 2.25305 12.8603 3.38615 14.0557 3.82833V5.38451L13.5673 5.30311C10.9388 4.86495 9.0309 2.61283 9.0309 -0.0523343H8.02594C8.02594 0.992324 8.27769 1.98071 8.72138 2.85804C8.08222 3.10023 7.50286 3.46604 7.02098 3.93988V2.96255H0.155575C1.48564 -1.20905 5.35073 -4.07219 9.78061 -4.07219ZM17.2585 9.66616C17.1364 9.3511 17.0706 9.01444 17.0706 8.67577C17.0706 7.16983 18.2957 5.94428 19.8021 5.94428H20.3694C21.8753 5.94428 23.1009 7.16933 23.1009 8.67577C23.1009 9.00539 23.0396 9.33452 22.923 9.64204C22.7095 9.23754 22.3205 8.93856 21.8412 8.85917L20.8593 8.69536C20.3071 8.60341 19.8544 8.2165 19.677 7.68487L19.5574 7.3256L18.6042 7.64367L18.7238 8.00294C18.7725 8.14917 18.8338 8.28835 18.9062 8.42051L18.3343 8.64913C17.8459 8.8441 17.4696 9.21191 17.2585 9.66616ZM18.0756 10.5154C18.0756 10.1023 18.3233 9.7355 18.7072 9.58275L19.6046 9.22347C19.9192 9.45813 20.291 9.61943 20.694 9.68676L21.6758 9.85057C21.9191 9.89077 22.0954 10.0993 22.0954 10.346V11.0013C22.0954 12.1097 21.194 13.0117 20.0855 13.0122C18.977 13.0117 18.0756 12.1097 18.0756 11.0013V10.5154ZM20.0845 14.0171H20.0865C20.3583 14.0171 20.6201 13.9774 20.8709 13.9096L21.0528 14.4558C20.8523 14.8035 20.491 15.0221 20.0855 15.0221C19.68 15.0221 19.3187 14.8035 19.1182 14.4558L19.3001 13.9096C19.5509 13.9774 19.8126 14.0171 20.0845 14.0171ZM18.2886 15.0322C18.6765 15.6492 19.3453 16.0271 20.0855 16.0271C20.8256 16.0271 21.4945 15.6492 21.8824 15.0322L23.0567 15.1884C24.0566 15.3216 24.8415 16.0783 25.051 17.032H15.1205C15.33 16.0783 16.1149 15.3216 17.1148 15.1884L18.2886 15.0322ZM-4.03361 3.96752H6.01602V15.1407C5.50901 14.6387 4.84373 14.2925 4.09453 14.1925L2.87601 14.0302L2.69512 13.487C3.30463 13.0675 3.75083 12.4298 3.92419 11.6876L4.59399 10.3907C4.86684 9.86313 5.01105 9.2702 5.01105 8.67577C5.01105 6.61559 3.33528 4.93932 1.2746 4.93932H0.707301C-1.35287 4.93982 -3.02865 6.6161 -3.02865 8.67577C-3.02865 9.2702 -2.88444 9.86313 -2.61159 10.3907L-1.94178 11.6876C-1.76792 12.4298 -1.32222 13.0675 -0.712712 13.487L-0.893605 14.0302L-2.11212 14.1925C-2.86132 14.292 -3.52661 14.6382 -4.03361 15.1407V3.96752ZM-1.83576 9.66616C-1.95786 9.3511 -2.02369 9.01444 -2.02369 8.67577C-2.02369 7.16983 -0.798636 5.94428 0.707803 5.94428H1.2751C2.38609 5.94428 3.34282 6.61258 3.76892 7.56729L2.65241 8.8436L1.76502 8.69536C1.2128 8.60341 0.760061 8.2165 0.582685 7.68487L0.463095 7.3256L-0.490112 7.64367L-0.370522 8.00294C-0.321781 8.14917 -0.260478 8.28835 -0.188121 8.42051L-0.759945 8.64913C-1.24836 8.8441 -1.62472 9.21191 -1.83576 9.66616ZM3.82821 9.64254C3.76289 9.51843 3.67998 9.40587 3.5835 9.30487L3.99654 8.83305C3.98046 9.10941 3.9262 9.38326 3.82821 9.64254ZM-1.01872 10.5154C-1.01872 10.1023 -0.770999 9.7355 -0.387104 9.58275L0.510328 9.22347C0.824882 9.45813 1.19672 9.61943 1.59971 9.68676L1.87406 9.73248L0.966581 10.7696L0.341494 10.1445L-0.369015 10.855L1.01582 12.2399L2.91269 10.0722C2.96495 10.1521 3.00113 10.244 3.00113 10.346V11.0013C3.00113 12.1097 2.09968 13.0117 0.991203 13.0122C-0.117271 13.0117 -1.01872 12.1097 -1.01872 11.0013V10.5154ZM0.990198 14.0171H0.992208C1.26405 14.0171 1.52584 13.9774 1.77658 13.9096L1.95848 14.4558C1.75799 14.8035 1.39671 15.0221 0.991203 15.0221C0.5857 15.0221 0.224416 14.8035 0.0239253 14.4558L0.205824 13.9096C0.456563 13.9774 0.718355 14.0171 0.990198 14.0171ZM-0.805671 15.0322C-0.417755 15.6492 0.251048 16.0271 0.991203 16.0271C1.73136 16.0271 2.40016 15.6492 2.78808 15.0322L3.96237 15.1884C4.96231 15.3216 5.74719 16.0783 5.95672 17.032H-3.97382C-3.76428 16.0783 -2.97941 15.3216 -1.97947 15.1884L-0.805671 15.0322ZM13.3427 22.7241L12.7754 24.7104L11.4659 23.6628L13.3427 22.7241ZM11.6182 25.0717H9.45852L10.5383 24.208L11.6182 25.0717ZM8.3013 24.7099L7.734 22.7236L9.61127 23.6623L8.3013 24.7099ZM2.55945 23.6346L6.69587 22.7483L7.35965 25.0717H1.05652C1.24445 24.3637 1.81929 23.7929 2.55945 23.6346ZM20.0202 25.0717H13.717L14.3808 22.7483L18.5173 23.6346C19.2574 23.7929 19.8322 24.3637 20.0202 25.0717ZM13.0508 21.7463L10.5383 23.0025L8.02594 21.7463V20.5896C8.81685 20.8896 9.66554 21.0519 10.5383 21.0519C11.4112 21.0519 12.2598 20.8896 13.0508 20.5896V21.7463ZM10.5383 20.0469C8.80177 20.0469 7.17625 19.3058 6.03411 18.037H7.02098V5.60711C7.49934 4.71219 8.29628 4.04641 9.25401 3.73436C10.2163 5.0584 11.677 6.00659 13.402 6.294L14.0557 6.40304V18.037H15.0426C13.9005 19.3058 12.2749 20.0469 10.5383 20.0469ZM23.1888 14.1925L21.9703 14.0302L21.7894 13.487C22.3989 13.0675 22.8451 12.4298 23.0185 11.6876L23.6883 10.3907C23.9611 9.86313 24.1053 9.2702 24.1053 8.67577C24.1053 6.61559 22.4296 4.93932 20.3689 4.93932H19.8016C17.7414 4.93932 16.0651 6.61559 16.0651 8.67577C16.0651 9.2702 16.2094 9.86313 16.4822 10.3907L17.152 11.6876C17.3259 12.4298 17.7716 13.0675 18.3811 13.487L18.2002 14.0302L16.9817 14.1925C16.2325 14.2925 15.5672 14.6387 15.0602 15.1407V3.96752H25.1098V15.1407C24.6033 14.6382 23.938 14.292 23.1888 14.1925Z" fill="#A1A1A1"/>
</g>
<line x1="7" y1="24.5" x2="20" y2="24.5" stroke="#A1A1A1"/>
</g>
<defs>
<clipPath id="clip0">
<rect width="27" height="27" fill="white"/>
</clipPath>
<clipPath id="clip1">
<rect width="15" height="15" fill="white" transform="translate(-2 3)"/>
</clipPath>
<clipPath id="clip2">
<rect width="15" height="15" fill="white" transform="translate(14 3)"/>
</clipPath>
</defs>
</svg>
