<svg width="177" height="19" viewBox="0 0 177 19" fill="none" xmlns="http://www.w3.org/2000/svg">
<path d="M7.31339 18.395V10.1844H10.2081L10.6415 6.98452H7.31331V4.94155C7.31331 4.01512 7.58348 3.38381 8.97893 3.38381L10.7586 3.38301V0.521091C10.4508 0.482165 9.39429 0.39502 8.16531 0.39502C5.59929 0.39502 3.84255 1.88619 3.84255 4.62474V6.98452H0.94043V10.1844H3.84255V18.3949H7.31339V18.395Z" fill="black"/>
<path d="M45.8767 2.09602V2.09277H46.7207L47.029 2.15437C47.2346 2.19435 47.4213 2.24675 47.589 2.31159C47.7567 2.37642 47.9191 2.45207 48.0759 2.5385C48.2328 2.62494 48.3751 2.71302 48.5028 2.8027C48.6294 2.89131 48.743 2.98532 48.8437 3.08473C48.9432 3.18522 49.0985 3.21115 49.3095 3.16253C49.5205 3.1139 49.7477 3.04636 49.9912 2.95992C50.2346 2.87348 50.4754 2.77623 50.7135 2.66817C50.9515 2.56011 51.0965 2.4915 51.1485 2.46233C51.1993 2.43208 51.2264 2.41587 51.2296 2.4137L51.2328 2.40884L51.2491 2.40073L51.2653 2.39263L51.2815 2.38452L51.2978 2.37642L51.301 2.37156L51.3059 2.36832L51.3108 2.36507L51.314 2.36021L51.3302 2.35535L51.3465 2.35211L51.3432 2.37642L51.3383 2.40073L51.3302 2.42505L51.3221 2.44936L51.314 2.46557L51.3059 2.48178L51.2978 2.50609C51.2924 2.5223 51.287 2.5439 51.2815 2.57092C51.2761 2.59794 51.2247 2.70599 51.1273 2.89509C51.03 3.08419 50.9082 3.27599 50.7621 3.47049C50.6161 3.66499 50.4851 3.81193 50.3694 3.91136C50.2525 4.01185 50.1751 4.08208 50.1373 4.12207C50.0994 4.16312 50.0534 4.20094 49.9993 4.23552L49.9181 4.28901L49.9019 4.29712L49.8857 4.30522L49.8824 4.31008L49.8776 4.31333L49.8727 4.31657L49.8694 4.32143L49.8532 4.32953L49.837 4.33764L49.8338 4.3425L49.8289 4.34574L49.824 4.34898L49.8208 4.35385L49.8175 4.35871L49.8126 4.36195L49.8078 4.36519L49.8045 4.37005H49.8857L50.3401 4.2728C50.6431 4.20797 50.9326 4.12964 51.2085 4.03778L51.6467 3.89191L51.6954 3.8757L51.7198 3.86759L51.736 3.85949L51.7522 3.85139L51.7685 3.84328L51.7847 3.83518L51.8171 3.83031L51.8496 3.82707V3.85949L51.8415 3.86273L51.8334 3.86759L51.8301 3.87246L51.8253 3.8757L51.8204 3.87894L51.8171 3.8838L51.8139 3.88867L51.809 3.89191L51.8042 3.89515L51.8009 3.90001L51.7977 3.90487L51.7928 3.90812L51.7847 3.92432L51.7766 3.94053L51.7717 3.94377C51.7695 3.94702 51.7008 4.03885 51.5656 4.21932C51.4303 4.40085 51.3573 4.49269 51.3465 4.49486C51.3356 4.4981 51.3205 4.51431 51.301 4.54348C51.2826 4.57373 51.1679 4.69422 50.9569 4.90493C50.7459 5.11564 50.5393 5.30311 50.3369 5.46736C50.1335 5.63269 50.0307 5.83583 50.0285 6.0768C50.0253 6.31668 50.0128 6.58792 49.9912 6.89046C49.9695 7.19302 49.929 7.51988 49.8694 7.87107C49.8099 8.22226 49.718 8.61936 49.5935 9.06239C49.4691 9.50541 49.3176 9.93764 49.1391 10.3591C48.9605 10.7805 48.7739 11.1587 48.5791 11.4937C48.3843 11.8286 48.2058 12.1123 48.0435 12.3446C47.8812 12.5769 47.7162 12.7957 47.5484 13.001C47.3807 13.2063 47.1687 13.4376 46.9122 13.6948C46.6547 13.9508 46.514 14.0913 46.4902 14.1162C46.4653 14.1399 46.3593 14.2286 46.1721 14.382C45.986 14.5365 45.7858 14.691 45.5715 14.8455C45.3584 14.999 45.1625 15.127 44.984 15.2297C44.8054 15.3323 44.5901 15.4496 44.338 15.5814C44.087 15.7143 43.8153 15.8375 43.5232 15.951C43.231 16.0644 42.9226 16.1698 42.598 16.267C42.2734 16.3643 41.9596 16.4399 41.6566 16.4939C41.3537 16.548 41.0101 16.5939 40.626 16.6317L40.0498 16.6884V16.6965H38.9948V16.6884L38.8568 16.6803C38.7649 16.6749 38.6891 16.6695 38.6296 16.6641C38.5701 16.6587 38.3456 16.629 37.956 16.575C37.5665 16.521 37.2608 16.4669 37.039 16.4129C36.8172 16.3589 36.4871 16.2562 36.0489 16.1049C35.6107 15.9537 35.2357 15.8008 34.9241 15.6462C34.6135 15.4928 34.4188 15.3955 34.3398 15.3545C34.2619 15.3145 34.1742 15.2648 34.0768 15.2054L33.9308 15.1162L33.9275 15.1114L33.9226 15.1081L33.9178 15.1049L33.9145 15.1L33.8983 15.0919L33.8821 15.0838L33.8788 15.079L33.874 15.0757L33.8691 15.0725L33.8658 15.0676L33.8626 15.0627L33.8577 15.0595H33.8496V15.0271L33.8658 15.0303L33.8821 15.0352L33.9551 15.0433C34.0038 15.0487 34.1364 15.0568 34.3528 15.0676C34.5692 15.0784 34.7991 15.0784 35.0426 15.0676C35.286 15.0568 35.5349 15.0325 35.7892 14.9947C36.0435 14.9569 36.3438 14.892 36.69 14.8002C37.0363 14.7083 37.3544 14.5992 37.6444 14.4728C37.9333 14.3453 38.1389 14.2502 38.2612 14.1875C38.3823 14.1259 38.5674 14.0114 38.8162 13.8439L39.1896 13.5926L39.1928 13.5878L39.1977 13.5845L39.2026 13.5813L39.2058 13.5764L39.209 13.5716L39.2139 13.5683L39.2188 13.5651L39.222 13.5602L39.2382 13.5554L39.2545 13.5521L39.2577 13.5359L39.2626 13.5197L39.2675 13.5165L39.2707 13.5116L39.1409 13.5035C39.0543 13.4981 38.9704 13.4927 38.8893 13.4873C38.8081 13.4819 38.681 13.4576 38.5079 13.4143C38.3347 13.3711 38.1481 13.3063 37.9479 13.2198C37.7477 13.1334 37.553 13.0307 37.3636 12.9119C37.1742 12.793 37.0373 12.6941 36.9529 12.6153C36.8696 12.5375 36.7614 12.4273 36.6283 12.2846C36.4963 12.1409 36.3816 11.9934 36.2842 11.8421C36.1869 11.6909 36.0938 11.5163 36.0051 11.3186L35.8703 11.0236L35.8622 10.9993L35.8541 10.975L35.8492 10.9588L35.846 10.9426L35.8703 10.9458L35.8947 10.9507L36.0732 10.975C36.1923 10.9912 36.3789 10.9966 36.6332 10.9912C36.8875 10.9858 37.0633 10.975 37.1607 10.9588C37.2581 10.9426 37.3176 10.9318 37.3392 10.9264L37.3717 10.9183L37.4123 10.9101L37.4529 10.902L37.4561 10.8972L37.461 10.8939L37.4659 10.8907L37.4691 10.8858L37.4366 10.8777L37.4042 10.8696L37.3717 10.8615L37.3392 10.8534L37.3068 10.8453C37.2851 10.8399 37.2473 10.8291 37.1932 10.8129C37.1391 10.7967 36.993 10.7373 36.7549 10.6346C36.5169 10.532 36.3275 10.432 36.1869 10.3347C36.0458 10.2372 35.9114 10.1306 35.7843 10.0154C35.6577 9.89874 35.5187 9.74854 35.3672 9.56485C35.2157 9.38116 35.0805 9.16774 34.9614 8.92462C34.8424 8.68149 34.7531 8.44918 34.6936 8.22766C34.6343 8.00744 34.5952 7.7823 34.5768 7.55501L34.5475 7.21463L34.5638 7.21787L34.58 7.22273L34.5962 7.23084L34.6125 7.23894L34.6287 7.24705L34.6449 7.25515L34.8965 7.36861C35.0642 7.44425 35.2725 7.50909 35.5214 7.56311C35.7703 7.61713 35.919 7.64686 35.9677 7.65226L36.0408 7.66036H36.1869L36.1836 7.6555L36.1787 7.65226L36.1739 7.64902L36.1706 7.64415L36.1674 7.63929L36.1625 7.63605L36.1576 7.63281L36.1544 7.62794L36.1382 7.61984L36.1219 7.61174L36.1187 7.60687L36.1138 7.60363L36.1089 7.60039L36.1057 7.59553L36.0895 7.58742L36.0732 7.57932L36.07 7.57446C36.0668 7.57229 36.0202 7.53771 35.9304 7.47072C35.8417 7.40265 35.7486 7.31459 35.6512 7.20653C35.5538 7.09846 35.4565 6.98501 35.3591 6.86615C35.2615 6.74702 35.1746 6.61957 35.0994 6.48525C35.0237 6.35019 34.9436 6.17836 34.8592 5.96982C34.7759 5.76236 34.7126 5.55327 34.6693 5.34256C34.626 5.13185 34.6016 4.92385 34.5962 4.71854C34.5908 4.51322 34.5962 4.33764 34.6125 4.19176C34.6287 4.04589 34.6612 3.8811 34.7098 3.69741C34.7585 3.51372 34.8289 3.31922 34.9208 3.1139L35.0588 2.80594L35.0669 2.78163L35.075 2.75732L35.0799 2.75408L35.0832 2.74921L35.0864 2.74435L35.0913 2.74111L35.0962 2.74435L35.0994 2.74921L35.1026 2.75408L35.1075 2.75732L35.1124 2.76056L35.1156 2.76542L35.1189 2.77028L35.1237 2.77353L35.1318 2.78974L35.14 2.80594L35.1448 2.80919L35.1481 2.81405L35.3672 3.05717C35.5133 3.21926 35.6864 3.40026 35.8866 3.60016C36.0868 3.80005 36.1977 3.90379 36.2193 3.91136C36.241 3.92 36.268 3.94484 36.3005 3.98592C36.3329 4.0259 36.4411 4.12153 36.6251 4.2728C36.809 4.42408 37.0498 4.59968 37.3474 4.79958C37.6449 4.99948 37.975 5.19668 38.3374 5.39118C38.6999 5.58569 39.0895 5.76127 39.5061 5.91796C39.9227 6.07464 40.2148 6.17729 40.3825 6.22592C40.5503 6.27454 40.837 6.33667 41.2428 6.41231C41.6485 6.48796 41.9542 6.53658 42.1598 6.55819C42.3654 6.5798 42.5061 6.59223 42.5818 6.59547L42.6954 6.59871L42.6922 6.5744L42.6873 6.55009L42.6548 6.34748C42.6332 6.21242 42.6224 6.02331 42.6224 5.78019C42.6224 5.53706 42.6413 5.31285 42.6792 5.10754C42.7171 4.90223 42.7739 4.69422 42.8496 4.48351C42.9254 4.2728 42.9995 4.10369 43.072 3.97619C43.1456 3.84976 43.2419 3.70551 43.3609 3.54343C43.4799 3.38134 43.6341 3.21386 43.8235 3.04097C44.0128 2.86807 44.2292 2.71409 44.4727 2.57903C44.7162 2.44396 44.9407 2.3413 45.1463 2.27107C45.3519 2.20083 45.525 2.1549 45.6657 2.13329C45.8063 2.11169 45.8767 2.09926 45.8767 2.09602Z" fill="black"/>
<path fill-rule="evenodd" clip-rule="evenodd" d="M74.8496 9.39502C74.8496 5.79988 74.8496 4.00231 75.7063 2.70757C76.0889 2.12941 76.584 1.63427 77.1622 1.25171C78.4569 0.39502 80.2545 0.39502 83.8496 0.39502C87.4447 0.39502 89.2423 0.39502 90.5371 1.25171C91.1152 1.63427 91.6104 2.12941 91.9929 2.70757C92.8496 4.00231 92.8496 5.79988 92.8496 9.39502C92.8496 12.9902 92.8496 14.7877 91.9929 16.0825C91.6104 16.6606 91.1152 17.1558 90.5371 17.5383C89.2423 18.395 87.4447 18.395 83.8496 18.395C80.2545 18.395 78.4569 18.395 77.1622 17.5383C76.584 17.1558 76.0889 16.6606 75.7063 16.0825C74.8496 14.7877 74.8496 12.9902 74.8496 9.39502ZM88.509 9.39574C88.509 11.9691 86.4229 14.0551 83.8496 14.0551C81.2763 14.0551 79.1902 11.9691 79.1902 9.39574C79.1902 6.82242 81.2763 4.73633 83.8496 4.73633C86.4229 4.73633 88.509 6.82242 88.509 9.39574ZM83.8496 12.4787C85.5523 12.4787 86.9326 11.0984 86.9326 9.39574C86.9326 7.69304 85.5523 6.31273 83.8496 6.31273C82.1469 6.31273 80.7666 7.69304 80.7666 9.39574C80.7666 11.0984 82.1469 12.4787 83.8496 12.4787ZM88.693 5.59687C89.2977 5.59687 89.7878 5.1067 89.7878 4.50205C89.7878 3.8974 89.2977 3.40723 88.693 3.40723C88.0883 3.40723 87.5982 3.8974 87.5982 4.50205C87.5982 5.1067 88.0883 5.59687 88.693 5.59687Z" fill="black"/>
<path d="M115.85 3.31458C115.85 2.73737 116.052 2.26118 116.458 1.88601C116.863 1.51083 117.39 1.32324 118.039 1.32324C118.676 1.32324 119.191 1.50793 119.585 1.87735C119.991 2.25831 120.193 2.75469 120.193 3.36653C120.193 3.92064 119.996 4.38239 119.603 4.75181C119.197 5.13276 118.664 5.32324 118.004 5.32324H117.987C117.35 5.32324 116.834 5.13276 116.44 4.75181C116.047 4.37086 115.85 3.89178 115.85 3.31458ZM116.075 18.4661V6.899H119.933V18.4661H116.075ZM122.07 18.4661H125.927V12.0072C125.927 11.6032 125.973 11.2915 126.066 11.0722C126.228 10.6797 126.474 10.3478 126.804 10.0765C127.134 9.8052 127.548 9.66956 128.047 9.66956C129.344 9.66956 129.992 10.5411 129.992 12.2843V18.4661H133.85V11.8341C133.85 10.1255 133.444 8.82973 132.633 7.94662C131.823 7.0635 130.751 6.62194 129.419 6.62194C127.925 6.62194 126.761 7.26263 125.927 8.54402V8.57865H125.909L125.927 8.54402V6.899H122.07C122.093 7.2684 122.104 8.41702 122.104 10.3449C122.104 12.2727 122.093 14.9798 122.07 18.4661Z" fill="black"/>
<path d="M167.288 16.3747L163.226 16.2988C161.911 16.2723 160.592 16.3251 159.303 16.051C157.341 15.6415 157.202 13.6336 157.057 11.9494C156.857 9.58155 156.934 7.17074 157.312 4.82266C157.526 3.50514 158.366 2.71897 159.665 2.63342C164.05 2.32295 168.465 2.35974 172.84 2.50459C173.302 2.51787 173.768 2.59044 174.223 2.67306C176.473 3.07597 176.528 5.35137 176.673 7.26683C176.819 9.20205 176.757 11.1472 176.48 13.0693C176.257 14.6607 175.83 15.9952 174.03 16.124C171.774 16.2925 169.57 16.4281 167.308 16.3849C167.308 16.3747 167.295 16.3747 167.288 16.3747ZM164.9 12.3457C166.6 11.3483 168.268 10.3675 169.958 9.3768C168.255 8.37939 166.59 7.3986 164.9 6.40788V12.3457Z" fill="black"/>
</svg>
