<svg width="44" height="49" viewBox="0 0 44 49" fill="none" xmlns="http://www.w3.org/2000/svg">
<g clip-path="url(#clip0_435_2590)">
<path d="M28.7187 20.625H29.2187C31.0284 20.625 32.5 22.0966 32.5 23.9063V41.0937C32.5 42.9034 31.0284 44.375 29.2187 44.375H3.78133C1.97156 44.375 0.5 42.9034 0.5 41.0937V23.9063C0.5 22.0966 1.97156 20.625 3.78133 20.625H28.7187Z" stroke="#9B9B9B"/>
<path d="M14 30.0001C14 31.6568 12.657 33 11 33C9.343 33 8 31.6568 8 30.0001C8 28.3432 9.343 27 11 27C12.657 27 14 28.3432 14 30.0001Z" fill="#9B9B9B"/>
<path d="M16 37.25C16 37.664 15.6267 38 15.1667 38H6.83333C6.37333 38 6 37.664 6 37.25V36.75C6 35.233 7.37004 34 9.05562 34H12.9444C14.63 34 16 35.233 16 36.75V37.25Z" fill="#9B9B9B"/>
<path d="M25.143 38H18.8573C18.3841 38 18.0001 37.552 18.0001 37C18.0001 36.448 18.3841 36 18.8573 36H25.143C25.6161 36 26.0001 36.448 26.0001 37C26.0001 37.552 25.6161 38 25.143 38Z" fill="#9B9B9B"/>
<path d="M25.143 34H18.8573C18.3841 34 18.0001 33.552 18.0001 33C18.0001 32.448 18.3841 32 18.8573 32H25.143C25.6161 32 26.0001 32.448 26.0001 33C26.0001 33.552 25.6161 34 25.143 34Z" fill="#9B9B9B"/>
<path d="M25.143 30H18.8573C18.3841 30 18.0001 29.552 18.0001 29C18.0001 28.448 18.3841 28 18.8573 28H25.143C25.6161 28 26.0001 28.448 26.0001 29C26.0001 29.552 25.6161 30 25.143 30Z" fill="#9B9B9B"/>
</g>
<circle cx="36" cy="8" r="8" fill="#B7B7B7"/>
<path d="M34.5485 6V4.71H36.9585V12H35.5185V6H34.5485Z" fill="white"/>
<defs>
<clipPath id="clip0_435_2590">
<rect width="33" height="33" fill="white" transform="translate(0 16)"/>
</clipPath>
</defs>
</svg>
