<svg width="44" height="49" viewBox="0 0 44 49" fill="none" xmlns="http://www.w3.org/2000/svg">
<g clip-path="url(#clip0_2481:11379)">
<path d="M29.2187 20.125H3.78133C1.69542 20.125 0 21.8204 0 23.9063V41.0937C0 43.1796 1.69542 44.875 3.78133 44.875H29.2187C31.3046 44.875 33 43.1796 33 41.0937V23.9063C33 21.8204 31.3046 20.125 29.2187 20.125V20.125Z" fill="#ECEFF1"/>
<path d="M13.7498 29.0625C13.7498 30.9609 12.211 32.5 10.3124 32.5C8.41382 32.5 6.875 30.9609 6.875 29.0625C6.875 27.1639 8.41382 25.6249 10.3124 25.6249C12.211 25.6249 13.7498 27.1639 13.7498 29.0625Z" fill="#9B9B9B"/>
<path d="M16.5 38.3438C16.5 38.913 16.038 39.375 15.4688 39.375H5.15625C4.587 39.375 4.125 38.913 4.125 38.3438V37.6562C4.125 35.5703 5.82042 33.8749 7.90633 33.8749H12.7187C14.8046 33.8749 16.5 35.5703 16.5 37.6562V38.3438Z" fill="#9B9B9B"/>
<path d="M27.8437 39.3751H20.2812C19.712 39.3751 19.25 38.9131 19.25 38.3439C19.25 37.7746 19.712 37.3126 20.2812 37.3126H27.8437C28.4129 37.3126 28.8749 37.7746 28.8749 38.3439C28.8749 38.9131 28.4129 39.3751 27.8437 39.3751Z" fill="#5E5E5E"/>
<path d="M27.8437 33.8749H20.2812C19.712 33.8749 19.25 33.4129 19.25 32.8436C19.25 32.2744 19.712 31.8124 20.2812 31.8124H27.8437C28.4129 31.8124 28.8749 32.2744 28.8749 32.8436C28.8749 33.4129 28.4129 33.8749 27.8437 33.8749Z" fill="#5E5E5E"/>
<path d="M27.8437 28.375H20.2812C19.712 28.375 19.25 27.913 19.25 27.3438C19.25 26.7745 19.712 26.3125 20.2812 26.3125H27.8437C28.4129 26.3125 28.8749 26.7745 28.8749 27.3438C28.8749 27.913 28.4129 28.375 27.8437 28.375Z" fill="#5E5E5E"/>
</g>
<circle cx="36" cy="8" r="8" fill="#B7B7B7"/>
<path d="M33.5568 6.63C33.5902 5.96333 33.8235 5.45 34.2568 5.09C34.6968 4.72333 35.2735 4.54 35.9868 4.54C36.4735 4.54 36.8902 4.62667 37.2368 4.8C37.5835 4.96667 37.8435 5.19667 38.0168 5.49C38.1968 5.77667 38.2868 6.10333 38.2868 6.47C38.2868 6.89 38.1768 7.24667 37.9568 7.54C37.7435 7.82667 37.4868 8.02 37.1868 8.12V8.16C37.5735 8.28 37.8735 8.49333 38.0868 8.8C38.3068 9.10667 38.4168 9.5 38.4168 9.98C38.4168 10.38 38.3235 10.7367 38.1368 11.05C37.9568 11.3633 37.6868 11.61 37.3268 11.79C36.9735 11.9633 36.5468 12.05 36.0468 12.05C35.2935 12.05 34.6802 11.86 34.2068 11.48C33.7335 11.1 33.4835 10.54 33.4568 9.8H34.8168C34.8302 10.1267 34.9402 10.39 35.1468 10.59C35.3602 10.7833 35.6502 10.88 36.0168 10.88C36.3568 10.88 36.6168 10.7867 36.7968 10.6C36.9835 10.4067 37.0768 10.16 37.0768 9.86C37.0768 9.46 36.9502 9.17333 36.6968 9C36.4435 8.82667 36.0502 8.74 35.5168 8.74H35.2268V7.59H35.5168C36.4635 7.59 36.9368 7.27333 36.9368 6.64C36.9368 6.35333 36.8502 6.13 36.6768 5.97C36.5102 5.81 36.2668 5.73 35.9468 5.73C35.6335 5.73 35.3902 5.81667 35.2168 5.99C35.0502 6.15667 34.9535 6.37 34.9268 6.63H33.5568Z" fill="white"/>
<defs>
<clipPath id="clip0_2481:11379">
<rect width="33" height="33" fill="white" transform="translate(0 16)"/>
</clipPath>
</defs>
</svg>
