<svg width="44" height="49" viewBox="0 0 44 49" fill="none" xmlns="http://www.w3.org/2000/svg">
<g clip-path="url(#clip0_2481:11363)">
<path d="M29.2187 20.125H3.78133C1.69542 20.125 0 21.8204 0 23.9063V41.0937C0 43.1796 1.69542 44.875 3.78133 44.875H29.2187C31.3046 44.875 33 43.1796 33 41.0937V23.9063C33 21.8204 31.3046 20.125 29.2187 20.125V20.125Z" fill="#ECEFF1"/>
<path d="M13.7498 29.0625C13.7498 30.9609 12.211 32.5 10.3124 32.5C8.41382 32.5 6.875 30.9609 6.875 29.0625C6.875 27.1639 8.41382 25.6249 10.3124 25.6249C12.211 25.6249 13.7498 27.1639 13.7498 29.0625Z" fill="#9B9B9B"/>
<path d="M16.5 38.3438C16.5 38.913 16.038 39.375 15.4688 39.375H5.15625C4.587 39.375 4.125 38.913 4.125 38.3438V37.6562C4.125 35.5703 5.82042 33.8749 7.90633 33.8749H12.7187C14.8046 33.8749 16.5 35.5703 16.5 37.6562V38.3438Z" fill="#9B9B9B"/>
<path d="M27.8437 39.3751H20.2812C19.712 39.3751 19.25 38.9131 19.25 38.3439C19.25 37.7746 19.712 37.3126 20.2812 37.3126H27.8437C28.4129 37.3126 28.8749 37.7746 28.8749 38.3439C28.8749 38.9131 28.4129 39.3751 27.8437 39.3751Z" fill="#5E5E5E"/>
<path d="M27.8437 33.8749H20.2812C19.712 33.8749 19.25 33.4129 19.25 32.8436C19.25 32.2744 19.712 31.8124 20.2812 31.8124H27.8437C28.4129 31.8124 28.8749 32.2744 28.8749 32.8436C28.8749 33.4129 28.4129 33.8749 27.8437 33.8749Z" fill="#5E5E5E"/>
<path d="M27.8437 28.375H20.2812C19.712 28.375 19.25 27.913 19.25 27.3438C19.25 26.7745 19.712 26.3125 20.2812 26.3125H27.8437C28.4129 26.3125 28.8749 26.7745 28.8749 27.3438C28.8749 27.913 28.4129 28.375 27.8437 28.375Z" fill="#5E5E5E"/>
</g>
<circle cx="36" cy="8" r="8" fill="#B7B7B7"/>
<path d="M34.0989 10.42C34.7389 9.88667 35.2489 9.44333 35.6289 9.09C36.0089 8.73 36.3256 8.35667 36.5789 7.97C36.8322 7.58333 36.9589 7.20333 36.9589 6.83C36.9589 6.49 36.8789 6.22333 36.7189 6.03C36.5589 5.83667 36.3122 5.74 35.9789 5.74C35.6456 5.74 35.3889 5.85333 35.2089 6.08C35.0289 6.3 34.9356 6.60333 34.9289 6.99H33.5689C33.5956 6.19 33.8322 5.58333 34.2789 5.17C34.7322 4.75667 35.3056 4.55 35.9989 4.55C36.7589 4.55 37.3422 4.75333 37.7489 5.16C38.1556 5.56 38.3589 6.09 38.3589 6.75C38.3589 7.27 38.2189 7.76667 37.9389 8.24C37.6589 8.71333 37.3389 9.12667 36.9789 9.48C36.6189 9.82667 36.1489 10.2467 35.5689 10.74H38.5189V11.9H33.5789V10.86L34.0989 10.42Z" fill="white"/>
<defs>
<clipPath id="clip0_2481:11363">
<rect width="33" height="33" fill="white" transform="translate(0 16)"/>
</clipPath>
</defs>
</svg>
