<svg width="44" height="49" viewBox="0 0 44 49" fill="none" xmlns="http://www.w3.org/2000/svg">
<g clip-path="url(#clip0_435_2986)">
<path d="M28.7187 20.625H29.2187C31.0284 20.625 32.5 22.0966 32.5 23.9063V41.0937C32.5 42.9034 31.0284 44.375 29.2187 44.375H3.78133C1.97156 44.375 0.5 42.9034 0.5 41.0937V23.9063C0.5 22.0966 1.97156 20.625 3.78133 20.625H28.7187Z" stroke="#D33341"/>
<path d="M13.75 29.0625C13.75 30.9609 12.2111 32.5 10.3125 32.5C8.41394 32.5 6.87512 30.9609 6.87512 29.0625C6.87512 27.1639 8.41394 25.6249 10.3125 25.6249C12.2111 25.6249 13.75 27.1639 13.75 29.0625Z" fill="#D33341"/>
<path d="M16.5 38.3438C16.5 38.913 16.038 39.375 15.4688 39.375H5.15625C4.587 39.375 4.125 38.913 4.125 38.3438V37.6562C4.125 35.5703 5.82042 33.8749 7.90633 33.8749H12.7187C14.8046 33.8749 16.5 35.5703 16.5 37.6562V38.3438Z" fill="#D33341"/>
<path d="M27.8438 39.3751H20.2814C19.7121 39.3751 19.2501 38.9131 19.2501 38.3439C19.2501 37.7746 19.7121 37.3126 20.2814 37.3126H27.8438C28.413 37.3126 28.875 37.7746 28.875 38.3439C28.875 38.9131 28.413 39.3751 27.8438 39.3751Z" fill="#9B9B9B"/>
<path d="M27.8438 33.8749H20.2814C19.7121 33.8749 19.2501 33.4129 19.2501 32.8436C19.2501 32.2744 19.7121 31.8124 20.2814 31.8124H27.8438C28.413 31.8124 28.875 32.2744 28.875 32.8436C28.875 33.4129 28.413 33.8749 27.8438 33.8749Z" fill="#9B9B9B"/>
<path d="M27.8438 28.375H20.2814C19.7121 28.375 19.2501 27.913 19.2501 27.3438C19.2501 26.7745 19.7121 26.3125 20.2814 26.3125H27.8438C28.413 26.3125 28.875 26.7745 28.875 27.3438C28.875 27.913 28.413 28.375 27.8438 28.375Z" fill="#9B9B9B"/>
</g>
<circle cx="36" cy="8" r="8" fill="#D33341"/>
<path d="M34.0989 10.42C34.7389 9.88667 35.2489 9.44333 35.6289 9.09C36.0089 8.73 36.3256 8.35667 36.5789 7.97C36.8322 7.58333 36.9589 7.20333 36.9589 6.83C36.9589 6.49 36.8789 6.22333 36.7189 6.03C36.5589 5.83667 36.3122 5.74 35.9789 5.74C35.6456 5.74 35.3889 5.85333 35.2089 6.08C35.0289 6.3 34.9356 6.60333 34.9289 6.99H33.5689C33.5956 6.19 33.8322 5.58333 34.2789 5.17C34.7322 4.75667 35.3056 4.55 35.9989 4.55C36.7589 4.55 37.3422 4.75333 37.7489 5.16C38.1556 5.56 38.3589 6.09 38.3589 6.75C38.3589 7.27 38.2189 7.76667 37.9389 8.24C37.6589 8.71333 37.3389 9.12667 36.9789 9.48C36.6189 9.82667 36.1489 10.2467 35.5689 10.74H38.5189V11.9H33.5789V10.86L34.0989 10.42Z" fill="white"/>
<defs>
<clipPath id="clip0_435_2986">
<rect width="33" height="33" fill="white" transform="translate(0 16)"/>
</clipPath>
</defs>
</svg>
